<?xml version="1.0" encoding="UTF-8"?>
<svg xmlns="http://www.w3.org/2000/svg" xmlns:xlink="http://www.w3.org/1999/xlink" width="48px" height="48px" viewBox="0 0 48 48" version="1.1">
<g id="surface1">
<path style=" stroke:none;fill-rule:nonzero;fill:rgb(14.117647%,16.078431%,21.960784%);fill-opacity:1;" d="M 11.039062 0 L 36.960938 0 C 43.058594 0 48 4.941406 48 11.039062 L 48 36.960938 C 48 43.058594 43.058594 48 36.960938 48 L 11.039062 48 C 4.941406 48 0 43.058594 0 36.960938 L 0 11.039062 C 0 4.941406 4.941406 0 11.039062 0 Z M 11.039062 0 "/>
<path style=" stroke:none;fill-rule:nonzero;fill:rgb(29.803922%,68.627451%,31.372549%);fill-opacity:1;" d="M 38.753906 18.527344 L 31.710938 23.777344 L 31.710938 35.230469 L 36.640625 35.230469 C 37.792969 35.230469 38.753906 34.304688 38.753906 33.121094 Z M 38.753906 18.527344 "/>
<path style=" stroke:none;fill-rule:nonzero;fill:rgb(11.764706%,53.333333%,89.803922%);fill-opacity:1;" d="M 9.246094 18.527344 L 16.257812 23.808594 L 16.257812 35.265625 L 11.359375 35.265625 C 10.207031 35.265625 9.246094 34.335938 9.246094 33.152344 Z M 9.246094 18.527344 "/>
<path style=" stroke:none;fill-rule:nonzero;fill:rgb(89.803922%,22.352941%,20.784314%);fill-opacity:1;" d="M 31.710938 15.007812 L 24 20.800781 L 16.289062 15.007812 L 16.289062 23.777344 L 24 29.566406 L 31.710938 23.777344 Z M 31.710938 15.007812 "/>
<path style=" stroke:none;fill-rule:nonzero;fill:rgb(77.647059%,15.686275%,15.686275%);fill-opacity:1;" d="M 9.246094 15.777344 L 9.246094 18.527344 L 16.257812 23.808594 L 16.257812 15.007812 L 14.078125 13.375 C 13.566406 12.992188 12.929688 12.769531 12.257812 12.769531 C 10.59375 12.769531 9.246094 14.113281 9.246094 15.777344 Z M 9.246094 15.777344 "/>
<path style=" stroke:none;fill-rule:nonzero;fill:rgb(98.431373%,75.294118%,17.647059%);fill-opacity:1;" d="M 38.753906 15.777344 L 38.753906 18.527344 L 31.710938 23.777344 L 31.710938 15.007812 L 33.921875 13.375 C 34.433594 12.992188 35.070312 12.769531 35.742188 12.769531 C 37.40625 12.769531 38.753906 14.113281 38.753906 15.777344 Z M 38.753906 15.777344 "/>
</g>
</svg>
