<?xml version="1.0" encoding="UTF-8"?>
<svg xmlns="http://www.w3.org/2000/svg" xmlns:xlink="http://www.w3.org/1999/xlink" width="48px" height="48px" viewBox="0 0 48 48" version="1.1">
<g id="surface1">
<path style=" stroke:none;fill-rule:nonzero;fill:rgb(14.117647%,16.078431%,21.960784%);fill-opacity:1;" d="M 11.039062 0 L 36.960938 0 C 43.058594 0 48 4.941406 48 11.039062 L 48 36.960938 C 48 43.058594 43.058594 48 36.960938 48 L 11.039062 48 C 4.941406 48 0 43.058594 0 36.960938 L 0 11.039062 C 0 4.941406 4.941406 0 11.039062 0 Z M 11.039062 0 "/>
<path style=" stroke:none;fill-rule:nonzero;fill:rgb(63.921569%,87.058824%,99.607843%);fill-opacity:1;" d="M 45.113281 24 C 45.113281 35.660156 35.660156 45.113281 24 45.113281 C 12.339844 45.113281 2.886719 35.660156 2.886719 24 C 2.886719 12.339844 12.339844 2.886719 24 2.886719 C 35.660156 2.886719 45.113281 12.339844 45.113281 24 Z M 45.113281 24 "/>
<path style=" stroke:none;fill-rule:nonzero;fill:rgb(47.843137%,80.784314%,98.039216%);fill-opacity:1;" d="M 16.761719 4.15625 C 8.667969 7.113281 2.886719 14.878906 2.886719 24 C 2.886719 35.660156 12.339844 45.113281 24 45.113281 C 29.367188 45.113281 34.265625 43.109375 37.992188 39.8125 C 13.085938 37.058594 11.777344 13.398438 16.761719 4.15625 Z M 16.761719 4.15625 "/>
<path style=" stroke:none;fill-rule:nonzero;fill:rgb(96.862745%,93.72549%,52.941176%);fill-opacity:1;" d="M 44.632812 18.242188 L 3.367188 18.242188 C 1.894531 18.242188 0.703125 19.433594 0.703125 20.90625 L 0.703125 27.09375 C 0.703125 28.566406 1.894531 29.757812 3.367188 29.757812 L 44.632812 29.757812 C 46.105469 29.757812 47.296875 28.566406 47.296875 27.09375 L 47.296875 20.90625 C 47.296875 19.433594 46.105469 18.242188 44.632812 18.242188 Z M 44.632812 18.242188 "/>
<path style=" stroke:none;fill-rule:nonzero;fill:rgb(93.72549%,81.960784%,46.27451%);fill-opacity:1;" d="M 3.367188 18.242188 C 1.894531 18.242188 0.703125 19.433594 0.703125 20.90625 L 0.703125 27.09375 C 0.703125 28.566406 1.894531 29.757812 3.367188 29.757812 L 25.789062 29.757812 C 22.960938 27.882812 21.769531 22.730469 22.945312 18.242188 Z M 3.367188 18.242188 "/>
<path style=" stroke:none;fill-rule:nonzero;fill:rgb(0%,0%,0%);fill-opacity:1;" d="M 44.847656 17.546875 C 44.109375 15.164062 42.953125 12.917969 41.457031 10.921875 C 41.425781 10.863281 41.382812 10.808594 41.335938 10.761719 C 40.171875 9.234375 38.804688 7.859375 37.273438 6.683594 C 33.4375 3.738281 28.847656 2.183594 24 2.179688 C 20.464844 2.179688 16.949219 3.046875 13.84375 4.6875 C 13.503906 4.871094 13.378906 5.289062 13.558594 5.628906 C 13.738281 5.96875 14.15625 6.101562 14.496094 5.929688 C 16.851562 4.6875 19.457031 3.921875 22.117188 3.675781 C 20.179688 5.617188 18.394531 7.988281 16.910156 10.558594 L 8.644531 10.558594 C 9.566406 9.5 10.597656 8.542969 11.714844 7.695312 C 12.023438 7.464844 12.085938 7.023438 11.851562 6.710938 C 11.617188 6.402344 11.179688 6.339844 10.867188 6.574219 C 9.277344 7.777344 7.859375 9.195312 6.65625 10.769531 C 6.617188 10.8125 6.582031 10.855469 6.554688 10.90625 C 5.050781 12.90625 3.894531 15.15625 3.152344 17.546875 C 1.394531 17.65625 0 19.121094 0 20.90625 L 0 27.09375 C 0 28.878906 1.394531 30.34375 3.152344 30.453125 C 3.890625 32.835938 5.046875 35.082031 6.542969 37.078125 C 6.574219 37.136719 6.617188 37.191406 6.664062 37.238281 C 7.828125 38.765625 9.195312 40.140625 10.726562 41.316406 C 14.5625 44.261719 19.152344 45.816406 24 45.816406 C 27.882812 45.816406 31.695312 44.785156 35.027344 42.832031 C 35.363281 42.632812 35.472656 42.203125 35.277344 41.867188 C 35.082031 41.53125 34.652344 41.421875 34.316406 41.617188 C 31.742188 43.128906 28.855469 44.050781 25.882812 44.324219 C 27.820312 42.382812 29.605469 40.011719 31.089844 37.441406 L 39.363281 37.441406 C 38.636719 38.269531 37.847656 39.039062 36.996094 39.738281 C 36.769531 39.929688 36.683594 40.242188 36.785156 40.519531 C 36.882812 40.800781 37.148438 40.984375 37.445312 40.984375 C 37.609375 40.984375 37.765625 40.929688 37.894531 40.824219 C 41.195312 38.09375 43.59375 34.515625 44.847656 30.453125 C 46.605469 30.34375 48 28.878906 48 27.09375 L 48 20.90625 C 48 19.121094 46.605469 17.65625 44.847656 17.546875 Z M 40.480469 11.964844 C 41.71875 13.664062 42.699219 15.546875 43.367188 17.539062 L 34.175781 17.539062 C 33.589844 15.65625 32.800781 13.773438 31.859375 11.964844 Z M 36.417969 7.796875 C 37.484375 8.617188 38.46875 9.542969 39.355469 10.558594 L 31.089844 10.558594 C 29.605469 7.988281 27.820312 5.617188 25.878906 3.671875 C 29.71875 4.019531 33.328125 5.425781 36.417969 7.796875 Z M 24 3.820312 C 26.015625 5.648438 27.890625 7.984375 29.457031 10.558594 L 18.542969 10.558594 C 20.109375 7.984375 21.980469 5.648438 24 3.820312 Z M 17.730469 11.964844 L 30.269531 11.964844 C 31.25 13.761719 32.078125 15.648438 32.699219 17.539062 L 15.300781 17.539062 C 15.921875 15.648438 16.75 13.761719 17.730469 11.964844 Z M 7.519531 11.964844 L 16.140625 11.964844 C 15.199219 13.773438 14.410156 15.65625 13.824219 17.539062 L 4.632812 17.539062 C 5.300781 15.546875 6.277344 13.664062 7.519531 11.964844 Z M 7.519531 36.035156 C 6.28125 34.335938 5.300781 32.453125 4.632812 30.460938 L 13.824219 30.460938 C 14.414062 32.34375 15.199219 34.226562 16.140625 36.035156 Z M 11.582031 40.203125 C 10.511719 39.378906 9.527344 38.453125 8.644531 37.441406 L 16.910156 37.441406 C 18.394531 40.011719 20.179688 42.382812 22.121094 44.328125 C 18.28125 43.980469 14.671875 42.574219 11.582031 40.203125 Z M 24 44.179688 C 21.980469 42.351562 20.109375 40.015625 18.542969 37.441406 L 29.457031 37.441406 C 27.890625 40.015625 26.015625 42.351562 24 44.179688 Z M 30.269531 36.035156 L 17.730469 36.035156 C 16.75 34.238281 15.921875 32.351562 15.300781 30.460938 L 32.699219 30.460938 C 32.078125 32.351562 31.25 34.238281 30.269531 36.035156 Z M 40.492188 36.035156 L 31.859375 36.035156 C 32.800781 34.226562 33.585938 32.34375 34.175781 30.460938 L 43.367188 30.460938 C 42.703125 32.457031 41.734375 34.335938 40.492188 36.035156 Z M 46.59375 27.09375 C 46.59375 28.175781 45.714844 29.054688 44.632812 29.054688 L 3.367188 29.054688 C 2.285156 29.054688 1.40625 28.175781 1.40625 27.09375 L 1.40625 20.90625 C 1.40625 19.824219 2.285156 18.945312 3.367188 18.945312 L 44.632812 18.945312 C 45.714844 18.945312 46.59375 19.824219 46.59375 20.90625 Z M 17.6875 20.675781 C 17.324219 20.542969 16.921875 20.730469 16.789062 21.09375 L 15.507812 24.609375 L 14.230469 21.09375 C 14.128906 20.816406 13.867188 20.632812 13.570312 20.632812 C 13.273438 20.632812 13.011719 20.816406 12.910156 21.09375 L 11.632812 24.609375 L 10.351562 21.09375 C 10.21875 20.730469 9.816406 20.542969 9.453125 20.675781 C 9.085938 20.808594 8.898438 21.210938 9.03125 21.578125 L 10.96875 26.90625 C 11.070312 27.183594 11.335938 27.367188 11.632812 27.367188 C 11.925781 27.367188 12.191406 27.183594 12.292969 26.90625 L 13.570312 23.390625 L 14.847656 26.90625 C 14.949219 27.183594 15.214844 27.367188 15.507812 27.367188 C 15.804688 27.367188 16.070312 27.183594 16.171875 26.90625 L 18.109375 21.578125 C 18.242188 21.210938 18.054688 20.808594 17.6875 20.675781 Z M 38.546875 20.675781 C 38.375 20.613281 38.179688 20.621094 38.011719 20.699219 C 37.84375 20.777344 37.710938 20.921875 37.648438 21.09375 L 36.367188 24.609375 L 35.089844 21.09375 C 34.988281 20.816406 34.726562 20.632812 34.429688 20.632812 C 34.132812 20.632812 33.871094 20.816406 33.769531 21.09375 L 32.492188 24.609375 L 31.210938 21.09375 C 31.078125 20.730469 30.675781 20.546875 30.3125 20.679688 C 29.949219 20.808594 29.757812 21.210938 29.890625 21.578125 L 31.828125 26.90625 C 31.929688 27.183594 32.195312 27.367188 32.492188 27.367188 C 32.785156 27.367188 33.050781 27.183594 33.152344 26.90625 L 34.429688 23.390625 L 35.707031 26.90625 C 35.808594 27.183594 36.074219 27.367188 36.367188 27.367188 C 36.664062 27.367188 36.929688 27.183594 37.03125 26.90625 L 38.96875 21.578125 C 39.101562 21.210938 38.914062 20.808594 38.546875 20.675781 Z M 28.117188 20.675781 C 27.945312 20.613281 27.75 20.621094 27.582031 20.699219 C 27.414062 20.777344 27.28125 20.921875 27.21875 21.09375 L 25.9375 24.609375 L 24.660156 21.09375 C 24.558594 20.816406 24.296875 20.632812 24 20.632812 C 23.703125 20.632812 23.441406 20.816406 23.339844 21.09375 L 22.0625 24.609375 L 20.78125 21.09375 C 20.648438 20.730469 20.246094 20.542969 19.882812 20.675781 C 19.515625 20.808594 19.328125 21.210938 19.460938 21.578125 L 21.398438 26.90625 C 21.5 27.183594 21.765625 27.367188 22.0625 27.367188 C 22.355469 27.367188 22.621094 27.183594 22.722656 26.90625 L 24 23.390625 L 25.277344 26.90625 C 25.378906 27.183594 25.644531 27.367188 25.9375 27.367188 C 26.234375 27.367188 26.5 27.183594 26.601562 26.90625 L 28.539062 21.578125 C 28.671875 21.210938 28.484375 20.808594 28.117188 20.675781 Z M 28.117188 20.675781 "/>
</g>
</svg>
